<svg id="_x31__px" height="512" fill="#FA314A" viewBox="0 0 24 24" width="512" xmlns="http://www.w3.org/2000/svg"><path d="m19.5 21h-17c-1.378 0-2.5-1.122-2.5-2.5v-13c0-1.378 1.122-2.5 2.5-2.5h17c1.378 0 2.5 1.122 2.5 2.5v4c0 .276-.224.5-.5.5s-.5-.224-.5-.5v-4c0-.827-.673-1.5-1.5-1.5h-17c-.827 0-1.5.673-1.5 1.5v13c0 .827.673 1.5 1.5 1.5h17c.827 0 1.5-.673 1.5-1.5v-3c0-.276.224-.5.5-.5s.5.224.5.5v3c0 1.378-1.122 2.5-2.5 2.5z"/><path d="m22.5 16h-6c-1.93 0-3.5-1.57-3.5-3.5s1.57-3.5 3.5-3.5h6c.827 0 1.5.673 1.5 1.5v4c0 .827-.673 1.5-1.5 1.5zm-6-6c-1.378 0-2.5 1.122-2.5 2.5s1.122 2.5 2.5 2.5h6c.276 0 .5-.224.5-.5v-4c0-.276-.224-.5-.5-.5z"/><path d="m16.5 14c-.827 0-1.5-.673-1.5-1.5s.673-1.5 1.5-1.5 1.5.673 1.5 1.5-.673 1.5-1.5 1.5zm0-2c-.276 0-.5.224-.5.5s.224.5.5.5.5-.224.5-.5-.224-.5-.5-.5z"/></svg>